<svg width="20" height="20" viewBox="0 0 20 20" fill="none" xmlns="http://www.w3.org/2000/svg">
<g clip-path="url(#clip0_2622_14685)">
<path d="M14.2944 2.66718C14.2944 2.37336 14.0562 2.13518 13.7624 2.13518C13.4686 2.13518 13.2304 2.37336 13.2304 2.66718H14.2944ZM13.2304 5.6386C13.2304 5.93242 13.4686 6.1706 13.7624 6.1706C14.0562 6.1706 14.2944 5.93242 14.2944 5.6386H13.2304ZM6.37062 2.66718C6.37062 2.37336 6.13243 2.13518 5.83862 2.13518C5.5448 2.13518 5.30662 2.37336 5.30662 2.66718H6.37062ZM5.30662 5.6386C5.30662 5.93242 5.5448 6.1706 5.83862 6.1706C6.13243 6.1706 6.37062 5.93242 6.37062 5.6386H5.30662ZM3.49203 15.909L3.11585 16.2851L3.49203 15.909ZM16.109 15.909L16.4852 16.2851L16.109 15.909ZM16.109 4.77773L15.7328 5.15391L16.109 4.77773ZM3.49203 4.77773L3.11585 4.40155L3.49203 4.77773ZM16.2019 8.41956V12.2671H17.2659V8.41956H16.2019ZM12.4672 16.0018H7.13385V17.0658H12.4672V16.0018ZM3.39919 12.2671V8.41956H2.33519V12.2671H3.39919ZM7.13452 4.68489C7.1381 4.68489 7.14169 4.68489 7.14527 4.68489C7.14885 4.68489 7.15242 4.68489 7.156 4.68489C7.15958 4.68489 7.16316 4.68489 7.16674 4.68489C7.17031 4.68489 7.17389 4.68489 7.17747 4.68489C7.18104 4.68489 7.18462 4.68489 7.18819 4.68489C7.19177 4.68489 7.19534 4.68489 7.19892 4.68489C7.20249 4.68489 7.20606 4.68489 7.20964 4.68489C7.21321 4.68489 7.21678 4.68489 7.22035 4.68489C7.22392 4.68489 7.22749 4.68489 7.23106 4.68489C7.23463 4.68489 7.2382 4.68489 7.24177 4.68489C7.24534 4.68489 7.24891 4.68489 7.25247 4.68489C7.25604 4.68489 7.25961 4.68489 7.26317 4.68489C7.26674 4.68489 7.27031 4.68489 7.27387 4.68489C7.27743 4.68489 7.281 4.68489 7.28456 4.68489C7.28813 4.68489 7.29169 4.68489 7.29525 4.68489C7.29881 4.68489 7.30238 4.68489 7.30594 4.68489C7.3095 4.68489 7.31306 4.68489 7.31662 4.68489C7.32018 4.68489 7.32374 4.68489 7.3273 4.68489C7.33086 4.68489 7.33441 4.68489 7.33797 4.68489C7.34153 4.68489 7.34509 4.68489 7.34864 4.68489C7.3522 4.68489 7.35576 4.68489 7.35931 4.68489C7.36287 4.68489 7.36642 4.68489 7.36998 4.68489C7.37353 4.68489 7.37708 4.68489 7.38064 4.68489C7.38419 4.68489 7.38774 4.68489 7.39129 4.68489C7.39485 4.68489 7.3984 4.68489 7.40195 4.68489C7.4055 4.68489 7.40905 4.68489 7.4126 4.68489C7.41615 4.68489 7.4197 4.68489 7.42324 4.68489C7.42679 4.68489 7.43034 4.68489 7.43389 4.68489C7.43743 4.68489 7.44098 4.68489 7.44453 4.68489C7.44807 4.68489 7.45162 4.68489 7.45516 4.68489C7.45871 4.68489 7.46225 4.68489 7.4658 4.68489C7.46934 4.68489 7.47288 4.68489 7.47642 4.68489C7.47997 4.68489 7.48351 4.68489 7.48705 4.68489C7.49059 4.68489 7.49413 4.68489 7.49767 4.68489C7.50121 4.68489 7.50475 4.68489 7.50829 4.68489C7.51183 4.68489 7.51537 4.68489 7.51891 4.68489C7.52245 4.68489 7.52598 4.68489 7.52952 4.68489C7.53306 4.68489 7.5366 4.68489 7.54013 4.68489C7.54367 4.68489 7.5472 4.68489 7.55074 4.68489C7.55427 4.68489 7.55781 4.68489 7.56134 4.68489C7.56487 4.68489 7.56841 4.68489 7.57194 4.68489C7.57547 4.68489 7.579 4.68489 7.58254 4.68489C7.58607 4.68489 7.5896 4.68489 7.59313 4.68489C7.59666 4.68489 7.60019 4.68489 7.60372 4.68489C7.60725 4.68489 7.61078 4.68489 7.61431 4.68489C7.61783 4.68489 7.62136 4.68489 7.62489 4.68489C7.62842 4.68489 7.63194 4.68489 7.63547 4.68489C7.639 4.68489 7.64252 4.68489 7.64605 4.68489C7.64957 4.68489 7.6531 4.68489 7.65662 4.68489C7.66015 4.68489 7.66367 4.68489 7.66719 4.68489C7.67072 4.68489 7.67424 4.68489 7.67776 4.68489C7.68128 4.68489 7.6848 4.68489 7.68832 4.68489C7.69185 4.68489 7.69537 4.68489 7.69889 4.68489C7.70241 4.68489 7.70593 4.68489 7.70944 4.68489C7.71296 4.68489 7.71648 4.68489 7.72 4.68489C7.72352 4.68489 7.72704 4.68489 7.73055 4.68489C7.73407 4.68489 7.73759 4.68489 7.7411 4.68489C7.74462 4.68489 7.74813 4.68489 7.75165 4.68489C7.75516 4.68489 7.75868 4.68489 7.76219 4.68489C7.76571 4.68489 7.76922 4.68489 7.77273 4.68489C7.77625 4.68489 7.77976 4.68489 7.78327 4.68489C7.78678 4.68489 7.79029 4.68489 7.79381 4.68489C7.79732 4.68489 7.80083 4.68489 7.80434 4.68489C7.80785 4.68489 7.81136 4.68489 7.81487 4.68489C7.81837 4.68489 7.82188 4.68489 7.82539 4.68489C7.8289 4.68489 7.83241 4.68489 7.83591 4.68489C7.83942 4.68489 7.84293 4.68489 7.84643 4.68489C7.84994 4.68489 7.85345 4.68489 7.85695 4.68489C7.86046 4.68489 7.86396 4.68489 7.86747 4.68489C7.87097 4.68489 7.87447 4.68489 7.87798 4.68489C7.88148 4.68489 7.88498 4.68489 7.88849 4.68489C7.89199 4.68489 7.89549 4.68489 7.89899 4.68489C7.90249 4.68489 7.906 4.68489 7.9095 4.68489C7.913 4.68489 7.9165 4.68489 7.92 4.68489C7.9235 4.68489 7.927 4.68489 7.93049 4.68489C7.93399 4.68489 7.93749 4.68489 7.94099 4.68489C7.94449 4.68489 7.94799 4.68489 7.95148 4.68489C7.95498 4.68489 7.95848 4.68489 7.96197 4.68489C7.96547 4.68489 7.96896 4.68489 7.97246 4.68489C7.97595 4.68489 7.97945 4.68489 7.98294 4.68489C7.98644 4.68489 7.98993 4.68489 7.99342 4.68489C7.99692 4.68489 8.00041 4.68489 8.0039 4.68489C8.0074 4.68489 8.01089 4.68489 8.01438 4.68489C8.01787 4.68489 8.02136 4.68489 8.02485 4.68489C8.02834 4.68489 8.03183 4.68489 8.03532 4.68489C8.03881 4.68489 8.0423 4.68489 8.04579 4.68489C8.04928 4.68489 8.05277 4.68489 8.05626 4.68489C8.05975 4.68489 8.06324 4.68489 8.06672 4.68489C8.07021 4.68489 8.0737 4.68489 8.07718 4.68489C8.08067 4.68489 8.08416 4.68489 8.08764 4.68489C8.09113 4.68489 8.09461 4.68489 8.0981 4.68489C8.10158 4.68489 8.10507 4.68489 8.10855 4.68489C8.11204 4.68489 8.11552 4.68489 8.119 4.68489C8.12249 4.68489 8.12597 4.68489 8.12945 4.68489C8.13293 4.68489 8.13642 4.68489 8.1399 4.68489C8.14338 4.68489 8.14686 4.68489 8.15034 4.68489C8.15382 4.68489 8.1573 4.68489 8.16078 4.68489C8.16426 4.68489 8.16774 4.68489 8.17122 4.68489C8.1747 4.68489 8.17818 4.68489 8.18166 4.68489C8.18513 4.68489 8.18861 4.68489 8.19209 4.68489C8.19557 4.68489 8.19905 4.68489 8.20252 4.68489C8.206 4.68489 8.20948 4.68489 8.21295 4.68489C8.21643 4.68489 8.2199 4.68489 8.22338 4.68489C8.22685 4.68489 8.23033 4.68489 8.2338 4.68489C8.23728 4.68489 8.24075 4.68489 8.24423 4.68489C8.2477 4.68489 8.25117 4.68489 8.25465 4.68489C8.25812 4.68489 8.26159 4.68489 8.26506 4.68489C8.26854 4.68489 8.27201 4.68489 8.27548 4.68489C8.27895 4.68489 8.28242 4.68489 8.28589 4.68489C8.28936 4.68489 8.29283 4.68489 8.2963 4.68489C8.29977 4.68489 8.30324 4.68489 8.30671 4.68489C8.31018 4.68489 8.31365 4.68489 8.31712 4.68489C8.32059 4.68489 8.32406 4.68489 8.32752 4.68489C8.33099 4.68489 8.33446 4.68489 8.33793 4.68489C8.34139 4.68489 8.34486 4.68489 8.34833 4.68489C8.35179 4.68489 8.35526 4.68489 8.35873 4.68489C8.36219 4.68489 8.36566 4.68489 8.36912 4.68489C8.37259 4.68489 8.37605 4.68489 8.37952 4.68489C8.38298 4.68489 8.38644 4.68489 8.38991 4.68489C8.39337 4.68489 8.39683 4.68489 8.4003 4.68489C8.40376 4.68489 8.40722 4.68489 8.41068 4.68489C8.41415 4.68489 8.41761 4.68489 8.42107 4.68489C8.42453 4.68489 8.42799 4.68489 8.43145 4.68489C8.43491 4.68489 8.43838 4.68489 8.44184 4.68489C8.4453 4.68489 8.44876 4.68489 8.45222 4.68489C8.45567 4.68489 8.45913 4.68489 8.46259 4.68489C8.46605 4.68489 8.46951 4.68489 8.47297 4.68489C8.47643 4.68489 8.47989 4.68489 8.48334 4.68489C8.4868 4.68489 8.49026 4.68489 8.49371 4.68489C8.49717 4.68489 8.50063 4.68489 8.50408 4.68489C8.50754 4.68489 8.511 4.68489 8.51445 4.68489C8.51791 4.68489 8.52136 4.68489 8.52482 4.68489C8.52827 4.68489 8.53173 4.68489 8.53518 4.68489C8.53864 4.68489 8.54209 4.68489 8.54555 4.68489C8.549 4.68489 8.55245 4.68489 8.55591 4.68489C8.55936 4.68489 8.56281 4.68489 8.56627 4.68489C8.56972 4.68489 8.57317 4.68489 8.57662 4.68489C8.58007 4.68489 8.58353 4.68489 8.58698 4.68489C8.59043 4.68489 8.59388 4.68489 8.59733 4.68489C8.60078 4.68489 8.60423 4.68489 8.60768 4.68489C8.61113 4.68489 8.61458 4.68489 8.61803 4.68489C8.62148 4.68489 8.62493 4.68489 8.62838 4.68489C8.63183 4.68489 8.63528 4.68489 8.63873 4.68489C8.64218 4.68489 8.64562 4.68489 8.64907 4.68489C8.65252 4.68489 8.65597 4.68489 8.65941 4.68489C8.66286 4.68489 8.66631 4.68489 8.66976 4.68489C8.6732 4.68489 8.67665 4.68489 8.6801 4.68489C8.68354 4.68489 8.68699 4.68489 8.69043 4.68489C8.69388 4.68489 8.69732 4.68489 8.70077 4.68489C8.70422 4.68489 8.70766 4.68489 8.7111 4.68489C8.71455 4.68489 8.71799 4.68489 8.72144 4.68489C8.72488 4.68489 8.72833 4.68489 8.73177 4.68489C8.73521 4.68489 8.73866 4.68489 8.7421 4.68489C8.74554 4.68489 8.74899 4.68489 8.75243 4.68489C8.75587 4.68489 8.75931 4.68489 8.76276 4.68489C8.7662 4.68489 8.76964 4.68489 8.77308 4.68489C8.77652 4.68489 8.77996 4.68489 8.7834 4.68489C8.78685 4.68489 8.79029 4.68489 8.79373 4.68489C8.79717 4.68489 8.80061 4.68489 8.80405 4.68489C8.80749 4.68489 8.81093 4.68489 8.81437 4.68489C8.81781 4.68489 8.82125 4.68489 8.82469 4.68489C8.82812 4.68489 8.83156 4.68489 8.835 4.68489C8.83844 4.68489 8.84188 4.68489 8.84532 4.68489C8.84876 4.68489 8.85219 4.68489 8.85563 4.68489C8.85907 4.68489 8.86251 4.68489 8.86594 4.68489C8.86938 4.68489 8.87282 4.68489 8.87625 4.68489C8.87969 4.68489 8.88313 4.68489 8.88656 4.68489C8.89 4.68489 8.89344 4.68489 8.89687 4.68489C8.90031 4.68489 8.90374 4.68489 8.90718 4.68489C8.91061 4.68489 8.91405 4.68489 8.91749 4.68489C8.92092 4.68489 8.92436 4.68489 8.92779 4.68489C8.93122 4.68489 8.93466 4.68489 8.93809 4.68489C8.94153 4.68489 8.94496 4.68489 8.94839 4.68489C8.95183 4.68489 8.95526 4.68489 8.9587 4.68489C8.96213 4.68489 8.96556 4.68489 8.96899 4.68489C8.97243 4.68489 8.97586 4.68489 8.97929 4.68489C8.98273 4.68489 8.98616 4.68489 8.98959 4.68489C8.99302 4.68489 8.99645 4.68489 8.99989 4.68489C9.00332 4.68489 9.00675 4.68489 9.01018 4.68489C9.01361 4.68489 9.01704 4.68489 9.02047 4.68489C9.0239 4.68489 9.02734 4.68489 9.03077 4.68489C9.0342 4.68489 9.03763 4.68489 9.04106 4.68489C9.04449 4.68489 9.04792 4.68489 9.05135 4.68489C9.05478 4.68489 9.05821 4.68489 9.06164 4.68489C9.06507 4.68489 9.06849 4.68489 9.07192 4.68489C9.07535 4.68489 9.07878 4.68489 9.08221 4.68489C9.08564 4.68489 9.08907 4.68489 9.0925 4.68489C9.09592 4.68489 9.09935 4.68489 9.10278 4.68489C9.10621 4.68489 9.10964 4.68489 9.11306 4.68489C9.11649 4.68489 9.11992 4.68489 9.12335 4.68489C9.12677 4.68489 9.1302 4.68489 9.13363 4.68489C9.13706 4.68489 9.14048 4.68489 9.14391 4.68489C9.14734 4.68489 9.15076 4.68489 9.15419 4.68489C9.15762 4.68489 9.16104 4.68489 9.16447 4.68489C9.16789 4.68489 9.17132 4.68489 9.17475 4.68489C9.17817 4.68489 9.1816 4.68489 9.18502 4.68489C9.18845 4.68489 9.19187 4.68489 9.1953 4.68489C9.19872 4.68489 9.20215 4.68489 9.20557 4.68489C9.209 4.68489 9.21242 4.68489 9.21585 4.68489C9.21927 4.68489 9.2227 4.68489 9.22612 4.68489C9.22955 4.68489 9.23297 4.68489 9.23639 4.68489C9.23982 4.68489 9.24324 4.68489 9.24667 4.68489C9.25009 4.68489 9.25351 4.68489 9.25694 4.68489C9.26036 4.68489 9.26378 4.68489 9.26721 4.68489C9.27063 4.68489 9.27405 4.68489 9.27748 4.68489C9.2809 4.68489 9.28432 4.68489 9.28774 4.68489C9.29117 4.68489 9.29459 4.68489 9.29801 4.68489C9.30143 4.68489 9.30486 4.68489 9.30828 4.68489C9.3117 4.68489 9.31512 4.68489 9.31854 4.68489C9.32197 4.68489 9.32539 4.68489 9.32881 4.68489C9.33223 4.68489 9.33565 4.68489 9.33908 4.68489C9.3425 4.68489 9.34592 4.68489 9.34934 4.68489C9.35276 4.68489 9.35618 4.68489 9.3596 4.68489C9.36302 4.68489 9.36645 4.68489 9.36987 4.68489C9.37329 4.68489 9.37671 4.68489 9.38013 4.68489C9.38355 4.68489 9.38697 4.68489 9.39039 4.68489C9.39381 4.68489 9.39723 4.68489 9.40065 4.68489C9.40407 4.68489 9.40749 4.68489 9.41091 4.68489C9.41433 4.68489 9.41775 4.68489 9.42117 4.68489C9.42459 4.68489 9.42801 4.68489 9.43143 4.68489C9.43485 4.68489 9.43827 4.68489 9.44169 4.68489C9.44511 4.68489 9.44853 4.68489 9.45195 4.68489C9.45537 4.68489 9.45879 4.68489 9.4622 4.68489C9.46562 4.68489 9.46904 4.68489 9.47246 4.68489C9.47588 4.68489 9.4793 4.68489 9.48272 4.68489C9.48614 4.68489 9.48956 4.68489 9.49298 4.68489C9.49639 4.68489 9.49981 4.68489 9.50323 4.68489C9.50665 4.68489 9.51007 4.68489 9.51349 4.68489C9.5169 4.68489 9.52032 4.68489 9.52374 4.68489C9.52716 4.68489 9.53058 4.68489 9.534 4.68489C9.53741 4.68489 9.54083 4.68489 9.54425 4.68489C9.54767 4.68489 9.55109 4.68489 9.5545 4.68489C9.55792 4.68489 9.56134 4.68489 9.56476 4.68489C9.56818 4.68489 9.57159 4.68489 9.57501 4.68489C9.57843 4.68489 9.58185 4.68489 9.58526 4.68489C9.58868 4.68489 9.5921 4.68489 9.59552 4.68489C9.59893 4.68489 9.60235 4.68489 9.60577 4.68489C9.60919 4.68489 9.6126 4.68489 9.61602 4.68489C9.61944 4.68489 9.62285 4.68489 9.62627 4.68489C9.62969 4.68489 9.63311 4.68489 9.63652 4.68489C9.63994 4.68489 9.64336 4.68489 9.64677 4.68489C9.65019 4.68489 9.65361 4.68489 9.65702 4.68489C9.66044 4.68489 9.66386 4.68489 9.66727 4.68489C9.67069 4.68489 9.67411 4.68489 9.67753 4.68489C9.68094 4.68489 9.68436 4.68489 9.68778 4.68489C9.69119 4.68489 9.69461 4.68489 9.69803 4.68489C9.70144 4.68489 9.70486 4.68489 9.70828 4.68489C9.71169 4.68489 9.71511 4.68489 9.71853 4.68489C9.72194 4.68489 9.72536 4.68489 9.72878 4.68489C9.73219 4.68489 9.73561 4.68489 9.73902 4.68489C9.74244 4.68489 9.74586 4.68489 9.74927 4.68489C9.75269 4.68489 9.75611 4.68489 9.75952 4.68489C9.76294 4.68489 9.76636 4.68489 9.76977 4.68489C9.77319 4.68489 9.77661 4.68489 9.78002 4.68489C9.78344 4.68489 9.78686 4.68489 9.79027 4.68489C9.79369 4.68489 9.7971 4.68489 9.80052 4.68489C9.80394 4.68489 9.80735 4.68489 9.81077 4.68489C9.81419 4.68489 9.8176 4.68489 9.82102 4.68489C9.82444 4.68489 9.82785 4.68489 9.83127 4.68489C9.83469 4.68489 9.8381 4.68489 9.84152 4.68489C9.84493 4.68489 9.84835 4.68489 9.85177 4.68489C9.85518 4.68489 9.8586 4.68489 9.86202 4.68489C9.86543 4.68489 9.86885 4.68489 9.87227 4.68489C9.87568 4.68489 9.8791 4.68489 9.88252 4.68489C9.88593 4.68489 9.88935 4.68489 9.89277 4.68489C9.89618 4.68489 9.8996 4.68489 9.90302 4.68489C9.90643 4.68489 9.90985 4.68489 9.91327 4.68489C9.91668 4.68489 9.9201 4.68489 9.92352 4.68489C9.92693 4.68489 9.93035 4.68489 9.93377 4.68489C9.93718 4.68489 9.9406 4.68489 9.94402 4.68489C9.94743 4.68489 9.95085 4.68489 9.95427 4.68489C9.95768 4.68489 9.9611 4.68489 9.96452 4.68489C9.96794 4.68489 9.97135 4.68489 9.97477 4.68489C9.97819 4.68489 9.98161 4.68489 9.98502 4.68489C9.98844 4.68489 9.99186 4.68489 9.99527 4.68489C9.99869 4.68489 10.0021 4.68489 10.0055 4.68489C10.0089 4.68489 10.0124 4.68489 10.0158 4.68489C10.0192 4.68489 10.0226 4.68489 10.026 4.68489C10.0294 4.68489 10.0329 4.68489 10.0363 4.68489C10.0397 4.68489 10.0431 4.68489 10.0465 4.68489C10.05 4.68489 10.0534 4.68489 10.0568 4.68489C10.0602 4.68489 10.0636 4.68489 10.067 4.68489C10.0705 4.68489 10.0739 4.68489 10.0773 4.68489C10.0807 4.68489 10.0841 4.68489 10.0876 4.68489C10.091 4.68489 10.0944 4.68489 10.0978 4.68489C10.1012 4.68489 10.1046 4.68489 10.1081 4.68489C10.1115 4.68489 10.1149 4.68489 10.1183 4.68489C10.1217 4.68489 10.1252 4.68489 10.1286 4.68489C10.132 4.68489 10.1354 4.68489 10.1388 4.68489C10.1423 4.68489 10.1457 4.68489 10.1491 4.68489C10.1525 4.68489 10.1559 4.68489 10.1594 4.68489C10.1628 4.68489 10.1662 4.68489 10.1696 4.68489C10.173 4.68489 10.1765 4.68489 10.1799 4.68489C10.1833 4.68489 10.1867 4.68489 10.1901 4.68489C10.1936 4.68489 10.197 4.68489 10.2004 4.68489C10.2038 4.68489 10.2072 4.68489 10.2107 4.68489C10.2141 4.68489 10.2175 4.68489 10.2209 4.68489C10.2243 4.68489 10.2278 4.68489 10.2312 4.68489C10.2346 4.68489 10.238 4.68489 10.2414 4.68489C10.2449 4.68489 10.2483 4.68489 10.2517 4.68489C10.2551 4.68489 10.2585 4.68489 10.262 4.68489C10.2654 4.68489 10.2688 4.68489 10.2722 4.68489C10.2757 4.68489 10.2791 4.68489 10.2825 4.68489C10.2859 4.68489 10.2893 4.68489 10.2928 4.68489C10.2962 4.68489 10.2996 4.68489 10.303 4.68489C10.3065 4.68489 10.3099 4.68489 10.3133 4.68489C10.3167 4.68489 10.3201 4.68489 10.3236 4.68489C10.327 4.68489 10.3304 4.68489 10.3338 4.68489C10.3373 4.68489 10.3407 4.68489 10.3441 4.68489C10.3475 4.68489 10.351 4.68489 10.3544 4.68489C10.3578 4.68489 10.3612 4.68489 10.3646 4.68489C10.3681 4.68489 10.3715 4.68489 10.3749 4.68489C10.3783 4.68489 10.3818 4.68489 10.3852 4.68489C10.3886 4.68489 10.392 4.68489 10.3955 4.68489C10.3989 4.68489 10.4023 4.68489 10.4057 4.68489C10.4092 4.68489 10.4126 4.68489 10.416 4.68489C10.4194 4.68489 10.4229 4.68489 10.4263 4.68489C10.4297 4.68489 10.4331 4.68489 10.4366 4.68489C10.44 4.68489 10.4434 4.68489 10.4469 4.68489C10.4503 4.68489 10.4537 4.68489 10.4571 4.68489C10.4606 4.68489 10.464 4.68489 10.4674 4.68489C10.4708 4.68489 10.4743 4.68489 10.4777 4.68489C10.4811 4.68489 10.4845 4.68489 10.488 4.68489C10.4914 4.68489 10.4948 4.68489 10.4983 4.68489C10.5017 4.68489 10.5051 4.68489 10.5085 4.68489C10.512 4.68489 10.5154 4.68489 10.5188 4.68489C10.5223 4.68489 10.5257 4.68489 10.5291 4.68489C10.5325 4.68489 10.536 4.68489 10.5394 4.68489C10.5428 4.68489 10.5463 4.68489 10.5497 4.68489C10.5531 4.68489 10.5566 4.68489 10.56 4.68489C10.5634 4.68489 10.5668 4.68489 10.5703 4.68489C10.5737 4.68489 10.5771 4.68489 10.5806 4.68489C10.584 4.68489 10.5874 4.68489 10.5909 4.68489C10.5943 4.68489 10.5977 4.68489 10.6012 4.68489C10.6046 4.68489 10.608 4.68489 10.6115 4.68489C10.6149 4.68489 10.6183 4.68489 10.6217 4.68489C10.6252 4.68489 10.6286 4.68489 10.632 4.68489C10.6355 4.68489 10.6389 4.68489 10.6423 4.68489C10.6458 4.68489 10.6492 4.68489 10.6526 4.68489C10.6561 4.68489 10.6595 4.68489 10.6629 4.68489C10.6664 4.68489 10.6698 4.68489 10.6733 4.68489C10.6767 4.68489 10.6801 4.68489 10.6836 4.68489C10.687 4.68489 10.6904 4.68489 10.6939 4.68489C10.6973 4.68489 10.7007 4.68489 10.7042 4.68489C10.7076 4.68489 10.711 4.68489 10.7145 4.68489C10.7179 4.68489 10.7214 4.68489 10.7248 4.68489C10.7282 4.68489 10.7317 4.68489 10.7351 4.68489C10.7385 4.68489 10.742 4.68489 10.7454 4.68489C10.7488 4.68489 10.7523 4.68489 10.7557 4.68489C10.7592 4.68489 10.7626 4.68489 10.766 4.68489C10.7695 4.68489 10.7729 4.68489 10.7764 4.68489C10.7798 4.68489 10.7832 4.68489 10.7867 4.68489C10.7901 4.68489 10.7936 4.68489 10.797 4.68489C10.8004 4.68489 10.8039 4.68489 10.8073 4.68489C10.8108 4.68489 10.8142 4.68489 10.8176 4.68489C10.8211 4.68489 10.8245 4.68489 10.828 4.68489C10.8314 4.68489 10.8348 4.68489 10.8383 4.68489C10.8417 4.68489 10.8452 4.68489 10.8486 4.68489C10.8521 4.68489 10.8555 4.68489 10.8589 4.68489C10.8624 4.68489 10.8658 4.68489 10.8693 4.68489C10.8727 4.68489 10.8762 4.68489 10.8796 4.68489C10.883 4.68489 10.8865 4.68489 10.8899 4.68489C10.8934 4.68489 10.8968 4.68489 10.9003 4.68489C10.9037 4.68489 10.9072 4.68489 10.9106 4.68489C10.9141 4.68489 10.9175 4.68489 10.9209 4.68489C10.9244 4.68489 10.9278 4.68489 10.9313 4.68489C10.9347 4.68489 10.9382 4.68489 10.9416 4.68489C10.9451 4.68489 10.9485 4.68489 10.952 4.68489C10.9554 4.68489 10.9589 4.68489 10.9623 4.68489C10.9658 4.68489 10.9692 4.68489 10.9727 4.68489C10.9761 4.68489 10.9796 4.68489 10.983 4.68489C10.9865 4.68489 10.9899 4.68489 10.9934 4.68489C10.9968 4.68489 11.0003 4.68489 11.0037 4.68489C11.0072 4.68489 11.0106 4.68489 11.0141 4.68489C11.0175 4.68489 11.021 4.68489 11.0244 4.68489C11.0279 4.68489 11.0313 4.68489 11.0348 4.68489C11.0382 4.68489 11.0417 4.68489 11.0451 4.68489C11.0486 4.68489 11.052 4.68489 11.0555 4.68489C11.059 4.68489 11.0624 4.68489 11.0659 4.68489C11.0693 4.68489 11.0728 4.68489 11.0762 4.68489C11.0797 4.68489 11.0831 4.68489 11.0866 4.68489C11.09 4.68489 11.0935 4.68489 11.097 4.68489C11.1004 4.68489 11.1039 4.68489 11.1073 4.68489C11.1108 4.68489 11.1142 4.68489 11.1177 4.68489C11.1212 4.68489 11.1246 4.68489 11.1281 4.68489C11.1315 4.68489 11.135 4.68489 11.1384 4.68489C11.1419 4.68489 11.1454 4.68489 11.1488 4.68489C11.1523 4.68489 11.1557 4.68489 11.1592 4.68489C11.1627 4.68489 11.1661 4.68489 11.1696 4.68489C11.173 4.68489 11.1765 4.68489 11.18 4.68489C11.1834 4.68489 11.1869 4.68489 11.1904 4.68489C11.1938 4.68489 11.1973 4.68489 11.2007 4.68489C11.2042 4.68489 11.2077 4.68489 11.2111 4.68489C11.2146 4.68489 11.2181 4.68489 11.2215 4.68489C11.225 4.68489 11.2285 4.68489 11.2319 4.68489C11.2354 4.68489 11.2389 4.68489 11.2423 4.68489C11.2458 4.68489 11.2492 4.68489 11.2527 4.68489C11.2562 4.68489 11.2596 4.68489 11.2631 4.68489C11.2666 4.68489 11.2701 4.68489 11.2735 4.68489C11.277 4.68489 11.2805 4.68489 11.2839 4.68489C11.2874 4.68489 11.2909 4.68489 11.2943 4.68489C11.2978 4.68489 11.3013 4.68489 11.3047 4.68489C11.3082 4.68489 11.3117 4.68489 11.3151 4.68489C11.3186 4.68489 11.3221 4.68489 11.3256 4.68489C11.329 4.68489 11.3325 4.68489 11.336 4.68489C11.3395 4.68489 11.3429 4.68489 11.3464 4.68489C11.3499 4.68489 11.3533 4.68489 11.3568 4.68489C11.3603 4.68489 11.3638 4.68489 11.3672 4.68489C11.3707 4.68489 11.3742 4.68489 11.3777 4.68489C11.3811 4.68489 11.3846 4.68489 11.3881 4.68489C11.3916 4.68489 11.395 4.68489 11.3985 4.68489C11.402 4.68489 11.4055 4.68489 11.409 4.68489C11.4124 4.68489 11.4159 4.68489 11.4194 4.68489C11.4229 4.68489 11.4263 4.68489 11.4298 4.68489C11.4333 4.68489 11.4368 4.68489 11.4403 4.68489C11.4437 4.68489 11.4472 4.68489 11.4507 4.68489C11.4542 4.68489 11.4577 4.68489 11.4611 4.68489C11.4646 4.68489 11.4681 4.68489 11.4716 4.68489C11.4751 4.68489 11.4786 4.68489 11.482 4.68489C11.4855 4.68489 11.489 4.68489 11.4925 4.68489C11.496 4.68489 11.4995 4.68489 11.5029 4.68489C11.5064 4.68489 11.5099 4.68489 11.5134 4.68489C11.5169 4.68489 11.5204 4.68489 11.5239 4.68489C11.5273 4.68489 11.5308 4.68489 11.5343 4.68489C11.5378 4.68489 11.5413 4.68489 11.5448 4.68489C11.5483 4.68489 11.5518 4.68489 11.5552 4.68489C11.5587 4.68489 11.5622 4.68489 11.5657 4.68489C11.5692 4.68489 11.5727 4.68489 11.5762 4.68489C11.5797 4.68489 11.5832 4.68489 11.5867 4.68489C11.5902 4.68489 11.5936 4.68489 11.5971 4.68489C11.6006 4.68489 11.6041 4.68489 11.6076 4.68489C11.6111 4.68489 11.6146 4.68489 11.6181 4.68489C11.6216 4.68489 11.6251 4.68489 11.6286 4.68489C11.6321 4.68489 11.6356 4.68489 11.6391 4.68489C11.6426 4.68489 11.6461 4.68489 11.6496 4.68489C11.6531 4.68489 11.6566 4.68489 11.6601 4.68489C11.6636 4.68489 11.667 4.68489 11.6705 4.68489C11.674 4.68489 11.6775 4.68489 11.681 4.68489C11.6845 4.68489 11.688 4.68489 11.6915 4.68489C11.695 4.68489 11.6985 4.68489 11.702 4.68489C11.7056 4.68489 11.7091 4.68489 11.7126 4.68489C11.7161 4.68489 11.7196 4.68489 11.7231 4.68489C11.7266 4.68489 11.7301 4.68489 11.7336 4.68489C11.7371 4.68489 11.7406 4.68489 11.7441 4.68489C11.7476 4.68489 11.7511 4.68489 11.7546 4.68489C11.7581 4.68489 11.7616 4.68489 11.7651 4.68489C11.7686 4.68489 11.7721 4.68489 11.7757 4.68489C11.7792 4.68489 11.7827 4.68489 11.7862 4.68489C11.7897 4.68489 11.7932 4.68489 11.7967 4.68489C11.8002 4.68489 11.8037 4.68489 11.8072 4.68489C11.8107 4.68489 11.8143 4.68489 11.8178 4.68489C11.8213 4.68489 11.8248 4.68489 11.8283 4.68489C11.8318 4.68489 11.8353 4.68489 11.8388 4.68489C11.8424 4.68489 11.8459 4.68489 11.8494 4.68489C11.8529 4.68489 11.8564 4.68489 11.8599 4.68489C11.8635 4.68489 11.867 4.68489 11.8705 4.68489C11.874 4.68489 11.8775 4.68489 11.881 4.68489C11.8846 4.68489 11.8881 4.68489 11.8916 4.68489C11.8951 4.68489 11.8986 4.68489 11.9022 4.68489C11.9057 4.68489 11.9092 4.68489 11.9127 4.68489C11.9162 4.68489 11.9198 4.68489 11.9233 4.68489C11.9268 4.68489 11.9303 4.68489 11.9338 4.68489C11.9374 4.68489 11.9409 4.68489 11.9444 4.68489C11.9479 4.68489 11.9515 4.68489 11.955 4.68489C11.9585 4.68489 11.962 4.68489 11.9656 4.68489C11.9691 4.68489 11.9726 4.68489 11.9762 4.68489C11.9797 4.68489 11.9832 4.68489 11.9867 4.68489C11.9903 4.68489 11.9938 4.68489 11.9973 4.68489C12.0009 4.68489 12.0044 4.68489 12.0079 4.68489C12.0114 4.68489 12.015 4.68489 12.0185 4.68489C12.022 4.68489 12.0256 4.68489 12.0291 4.68489C12.0326 4.68489 12.0362 4.68489 12.0397 4.68489C12.0432 4.68489 12.0468 4.68489 12.0503 4.68489C12.0538 4.68489 12.0574 4.68489 12.0609 4.68489C12.0644 4.68489 12.068 4.68489 12.0715 4.68489C12.0751 4.68489 12.0786 4.68489 12.0821 4.68489C12.0857 4.68489 12.0892 4.68489 12.0927 4.68489C12.0963 4.68489 12.0998 4.68489 12.1034 4.68489C12.1069 4.68489 12.1104 4.68489 12.114 4.68489C12.1175 4.68489 12.1211 4.68489 12.1246 4.68489C12.1282 4.68489 12.1317 4.68489 12.1352 4.68489C12.1388 4.68489 12.1423 4.68489 12.1459 4.68489C12.1494 4.68489 12.153 4.68489 12.1565 4.68489C12.1601 4.68489 12.1636 4.68489 12.1672 4.68489C12.1707 4.68489 12.1742 4.68489 12.1778 4.68489C12.1813 4.68489 12.1849 4.68489 12.1884 4.68489C12.192 4.68489 12.1955 4.68489 12.1991 4.68489C12.2026 4.68489 12.2062 4.68489 12.2097 4.68489C12.2133 4.68489 12.2169 4.68489 12.2204 4.68489C12.224 4.68489 12.2275 4.68489 12.2311 4.68489C12.2346 4.68489 12.2382 4.68489 12.2417 4.68489C12.2453 4.68489 12.2488 4.68489 12.2524 4.68489C12.256 4.68489 12.2595 4.68489 12.2631 4.68489C12.2666 4.68489 12.2702 4.68489 12.2737 4.68489C12.2773 4.68489 12.2809 4.68489 12.2844 4.68489C12.288 4.68489 12.2915 4.68489 12.2951 4.68489C12.2987 4.68489 12.3022 4.68489 12.3058 4.68489C12.3094 4.68489 12.3129 4.68489 12.3165 4.68489C12.32 4.68489 12.3236 4.68489 12.3272 4.68489C12.3307 4.68489 12.3343 4.68489 12.3379 4.68489C12.3414 4.68489 12.345 4.68489 12.3486 4.68489C12.3521 4.68489 12.3557 4.68489 12.3593 4.68489C12.3628 4.68489 12.3664 4.68489 12.37 4.68489C12.3736 4.68489 12.3771 4.68489 12.3807 4.68489C12.3843 4.68489 12.3878 4.68489 12.3914 4.68489C12.395 4.68489 12.3986 4.68489 12.4021 4.68489C12.4057 4.68489 12.4093 4.68489 12.4128 4.68489C12.4164 4.68489 12.42 4.68489 12.4236 4.68489C12.4272 4.68489 12.4307 4.68489 12.4343 4.68489C12.4379 4.68489 12.4415 4.68489 12.445 4.68489C12.4486 4.68489 12.4522 4.68489 12.4558 4.68489C12.4594 4.68489 12.4629 4.68489 12.4665 4.68489V3.62089C12.4629 3.62089 12.4594 3.62089 12.4558 3.62089C12.4522 3.62089 12.4486 3.62089 12.445 3.62089C12.4415 3.62089 12.4379 3.62089 12.4343 3.62089C12.4307 3.62089 12.4272 3.62089 12.4236 3.62089C12.42 3.62089 12.4164 3.62089 12.4128 3.62089C12.4093 3.62089 12.4057 3.62089 12.4021 3.62089C12.3986 3.62089 12.395 3.62089 12.3914 3.62089C12.3878 3.62089 12.3843 3.62089 12.3807 3.62089C12.3771 3.62089 12.3736 3.62089 12.37 3.62089C12.3664 3.62089 12.3628 3.62089 12.3593 3.62089C12.3557 3.62089 12.3521 3.62089 12.3486 3.62089C12.345 3.62089 12.3414 3.62089 12.3379 3.62089C12.3343 3.62089 12.3307 3.62089 12.3272 3.62089C12.3236 3.62089 12.32 3.62089 12.3165 3.62089C12.3129 3.62089 12.3094 3.62089 12.3058 3.62089C12.3022 3.62089 12.2987 3.62089 12.2951 3.62089C12.2915 3.62089 12.288 3.62089 12.2844 3.62089C12.2809 3.62089 12.2773 3.62089 12.2737 3.62089C12.2702 3.62089 12.2666 3.62089 12.2631 3.62089C12.2595 3.62089 12.256 3.62089 12.2524 3.62089C12.2488 3.62089 12.2453 3.62089 12.2417 3.62089C12.2382 3.62089 12.2346 3.62089 12.2311 3.62089C12.2275 3.62089 12.224 3.62089 12.2204 3.62089C12.2169 3.62089 12.2133 3.62089 12.2097 3.62089C12.2062 3.62089 12.2026 3.62089 12.1991 3.62089C12.1955 3.62089 12.192 3.62089 12.1884 3.62089C12.1849 3.62089 12.1813 3.62089 12.1778 3.62089C12.1742 3.62089 12.1707 3.62089 12.1672 3.62089C12.1636 3.62089 12.1601 3.62089 12.1565 3.62089C12.153 3.62089 12.1494 3.62089 12.1459 3.62089C12.1423 3.62089 12.1388 3.62089 12.1352 3.62089C12.1317 3.62089 12.1282 3.62089 12.1246 3.62089C12.1211 3.62089 12.1175 3.62089 12.114 3.62089C12.1104 3.62089 12.1069 3.62089 12.1034 3.62089C12.0998 3.62089 12.0963 3.62089 12.0927 3.62089C12.0892 3.62089 12.0857 3.62089 12.0821 3.62089C12.0786 3.62089 12.0751 3.62089 12.0715 3.62089C12.068 3.62089 12.0644 3.62089 12.0609 3.62089C12.0574 3.62089 12.0538 3.62089 12.0503 3.62089C12.0468 3.62089 12.0432 3.62089 12.0397 3.62089C12.0362 3.62089 12.0326 3.62089 12.0291 3.62089C12.0256 3.62089 12.022 3.62089 12.0185 3.62089C12.015 3.62089 12.0114 3.62089 12.0079 3.62089C12.0044 3.62089 12.0009 3.62089 11.9973 3.62089C11.9938 3.62089 11.9903 3.62089 11.9867 3.62089C11.9832 3.62089 11.9797 3.62089 11.9762 3.62089C11.9726 3.62089 11.9691 3.62089 11.9656 3.62089C11.962 3.62089 11.9585 3.62089 11.955 3.62089C11.9515 3.62089 11.9479 3.62089 11.9444 3.62089C11.9409 3.62089 11.9374 3.62089 11.9338 3.62089C11.9303 3.62089 11.9268 3.62089 11.9233 3.62089C11.9198 3.62089 11.9162 3.62089 11.9127 3.62089C11.9092 3.62089 11.9057 3.62089 11.9022 3.62089C11.8986 3.62089 11.8951 3.62089 11.8916 3.62089C11.8881 3.62089 11.8846 3.62089 11.881 3.62089C11.8775 3.62089 11.874 3.62089 11.8705 3.62089C11.867 3.62089 11.8635 3.62089 11.8599 3.62089C11.8564 3.62089 11.8529 3.62089 11.8494 3.62089C11.8459 3.62089 11.8424 3.62089 11.8388 3.62089C11.8353 3.62089 11.8318 3.62089 11.8283 3.62089C11.8248 3.62089 11.8213 3.62089 11.8178 3.62089C11.8143 3.62089 11.8107 3.62089 11.8072 3.62089C11.8037 3.62089 11.8002 3.62089 11.7967 3.62089C11.7932 3.62089 11.7897 3.62089 11.7862 3.62089C11.7827 3.62089 11.7792 3.62089 11.7757 3.62089C11.7721 3.62089 11.7686 3.62089 11.7651 3.62089C11.7616 3.62089 11.7581 3.62089 11.7546 3.62089C11.7511 3.62089 11.7476 3.62089 11.7441 3.62089C11.7406 3.62089 11.7371 3.62089 11.7336 3.62089C11.7301 3.62089 11.7266 3.62089 11.7231 3.62089C11.7196 3.62089 11.7161 3.62089 11.7126 3.62089C11.7091 3.62089 11.7056 3.62089 11.702 3.62089C11.6985 3.62089 11.695 3.62089 11.6915 3.62089C11.688 3.62089 11.6845 3.62089 11.681 3.62089C11.6775 3.62089 11.674 3.62089 11.6705 3.62089C11.667 3.62089 11.6636 3.62089 11.6601 3.62089C11.6566 3.62089 11.6531 3.62089 11.6496 3.62089C11.6461 3.62089 11.6426 3.62089 11.6391 3.62089C11.6356 3.62089 11.6321 3.62089 11.6286 3.62089C11.6251 3.62089 11.6216 3.62089 11.6181 3.62089C11.6146 3.62089 11.6111 3.62089 11.6076 3.62089C11.6041 3.62089 11.6006 3.62089 11.5971 3.62089C11.5936 3.62089 11.5902 3.62089 11.5867 3.62089C11.5832 3.62089 11.5797 3.62089 11.5762 3.62089C11.5727 3.62089 11.5692 3.62089 11.5657 3.62089C11.5622 3.62089 11.5587 3.62089 11.5552 3.62089C11.5518 3.62089 11.5483 3.62089 11.5448 3.62089C11.5413 3.62089 11.5378 3.62089 11.5343 3.62089C11.5308 3.62089 11.5273 3.62089 11.5239 3.62089C11.5204 3.62089 11.5169 3.62089 11.5134 3.62089C11.5099 3.62089 11.5064 3.62089 11.5029 3.62089C11.4995 3.62089 11.496 3.62089 11.4925 3.62089C11.489 3.62089 11.4855 3.62089 11.482 3.62089C11.4786 3.62089 11.4751 3.62089 11.4716 3.62089C11.4681 3.62089 11.4646 3.62089 11.4611 3.62089C11.4577 3.62089 11.4542 3.62089 11.4507 3.62089C11.4472 3.62089 11.4437 3.62089 11.4403 3.62089C11.4368 3.62089 11.4333 3.62089 11.4298 3.62089C11.4263 3.62089 11.4229 3.62089 11.4194 3.62089C11.4159 3.62089 11.4124 3.62089 11.409 3.62089C11.4055 3.62089 11.402 3.62089 11.3985 3.62089C11.395 3.62089 11.3916 3.62089 11.3881 3.62089C11.3846 3.62089 11.3811 3.62089 11.3777 3.62089C11.3742 3.62089 11.3707 3.62089 11.3672 3.62089C11.3638 3.62089 11.3603 3.62089 11.3568 3.62089C11.3533 3.62089 11.3499 3.62089 11.3464 3.62089C11.3429 3.62089 11.3395 3.62089 11.336 3.62089C11.3325 3.62089 11.329 3.62089 11.3256 3.62089C11.3221 3.62089 11.3186 3.62089 11.3151 3.62089C11.3117 3.62089 11.3082 3.62089 11.3047 3.62089C11.3013 3.62089 11.2978 3.62089 11.2943 3.62089C11.2909 3.62089 11.2874 3.62089 11.2839 3.62089C11.2805 3.62089 11.277 3.62089 11.2735 3.62089C11.2701 3.62089 11.2666 3.62089 11.2631 3.62089C11.2596 3.62089 11.2562 3.62089 11.2527 3.62089C11.2492 3.62089 11.2458 3.62089 11.2423 3.62089C11.2389 3.62089 11.2354 3.62089 11.2319 3.62089C11.2285 3.62089 11.225 3.62089 11.2215 3.62089C11.2181 3.62089 11.2146 3.62089 11.2111 3.62089C11.2077 3.62089 11.2042 3.62089 11.2007 3.62089C11.1973 3.62089 11.1938 3.62089 11.1904 3.62089C11.1869 3.62089 11.1834 3.62089 11.18 3.62089C11.1765 3.62089 11.173 3.62089 11.1696 3.62089C11.1661 3.62089 11.1627 3.62089 11.1592 3.62089C11.1557 3.62089 11.1523 3.62089 11.1488 3.62089C11.1454 3.62089 11.1419 3.62089 11.1384 3.62089C11.135 3.62089 11.1315 3.62089 11.1281 3.62089C11.1246 3.62089 11.1212 3.62089 11.1177 3.62089C11.1142 3.62089 11.1108 3.62089 11.1073 3.62089C11.1039 3.62089 11.1004 3.62089 11.097 3.62089C11.0935 3.62089 11.09 3.62089 11.0866 3.62089C11.0831 3.62089 11.0797 3.62089 11.0762 3.62089C11.0728 3.62089 11.0693 3.62089 11.0659 3.62089C11.0624 3.62089 11.059 3.62089 11.0555 3.62089C11.052 3.62089 11.0486 3.62089 11.0451 3.62089C11.0417 3.62089 11.0382 3.62089 11.0348 3.62089C11.0313 3.62089 11.0279 3.62089 11.0244 3.62089C11.021 3.62089 11.0175 3.62089 11.0141 3.62089C11.0106 3.62089 11.0072 3.62089 11.0037 3.62089C11.0003 3.62089 10.9968 3.62089 10.9934 3.62089C10.9899 3.62089 10.9865 3.62089 10.983 3.62089C10.9796 3.62089 10.9761 3.62089 10.9727 3.62089C10.9692 3.62089 10.9658 3.62089 10.9623 3.62089C10.9589 3.62089 10.9554 3.62089 10.952 3.62089C10.9485 3.62089 10.9451 3.62089 10.9416 3.62089C10.9382 3.62089 10.9347 3.62089 10.9313 3.62089C10.9278 3.62089 10.9244 3.62089 10.9209 3.62089C10.9175 3.62089 10.9141 3.62089 10.9106 3.62089C10.9072 3.62089 10.9037 3.62089 10.9003 3.62089C10.8968 3.62089 10.8934 3.62089 10.8899 3.62089C10.8865 3.62089 10.883 3.62089 10.8796 3.62089C10.8762 3.62089 10.8727 3.62089 10.8693 3.62089C10.8658 3.62089 10.8624 3.62089 10.8589 3.62089C10.8555 3.62089 10.8521 3.62089 10.8486 3.62089C10.8452 3.62089 10.8417 3.62089 10.8383 3.62089C10.8348 3.62089 10.8314 3.62089 10.828 3.62089C10.8245 3.62089 10.8211 3.62089 10.8176 3.62089C10.8142 3.62089 10.8108 3.62089 10.8073 3.62089C10.8039 3.62089 10.8004 3.62089 10.797 3.62089C10.7936 3.62089 10.7901 3.62089 10.7867 3.62089C10.7832 3.62089 10.7798 3.62089 10.7764 3.62089C10.7729 3.62089 10.7695 3.62089 10.766 3.62089C10.7626 3.62089 10.7592 3.62089 10.7557 3.62089C10.7523 3.62089 10.7488 3.62089 10.7454 3.62089C10.742 3.62089 10.7385 3.62089 10.7351 3.62089C10.7317 3.62089 10.7282 3.62089 10.7248 3.62089C10.7214 3.62089 10.7179 3.62089 10.7145 3.62089C10.711 3.62089 10.7076 3.62089 10.7042 3.62089C10.7007 3.62089 10.6973 3.62089 10.6939 3.62089C10.6904 3.62089 10.687 3.62089 10.6836 3.62089C10.6801 3.62089 10.6767 3.62089 10.6733 3.62089C10.6698 3.62089 10.6664 3.62089 10.6629 3.62089C10.6595 3.62089 10.6561 3.62089 10.6526 3.62089C10.6492 3.62089 10.6458 3.62089 10.6423 3.62089C10.6389 3.62089 10.6355 3.62089 10.632 3.62089C10.6286 3.62089 10.6252 3.62089 10.6217 3.62089C10.6183 3.62089 10.6149 3.62089 10.6115 3.62089C10.608 3.62089 10.6046 3.62089 10.6012 3.62089C10.5977 3.62089 10.5943 3.62089 10.5909 3.62089C10.5874 3.62089 10.584 3.62089 10.5806 3.62089C10.5771 3.62089 10.5737 3.62089 10.5703 3.62089C10.5668 3.62089 10.5634 3.62089 10.56 3.62089C10.5566 3.62089 10.5531 3.62089 10.5497 3.62089C10.5463 3.62089 10.5428 3.62089 10.5394 3.62089C10.536 3.62089 10.5325 3.62089 10.5291 3.62089C10.5257 3.62089 10.5223 3.62089 10.5188 3.62089C10.5154 3.62089 10.512 3.62089 10.5085 3.62089C10.5051 3.62089 10.5017 3.62089 10.4983 3.62089C10.4948 3.62089 10.4914 3.62089 10.488 3.62089C10.4845 3.62089 10.4811 3.62089 10.4777 3.62089C10.4743 3.62089 10.4708 3.62089 10.4674 3.62089C10.464 3.62089 10.4606 3.62089 10.4571 3.62089C10.4537 3.62089 10.4503 3.62089 10.4469 3.62089C10.4434 3.62089 10.44 3.62089 10.4366 3.62089C10.4331 3.62089 10.4297 3.62089 10.4263 3.62089C10.4229 3.62089 10.4194 3.62089 10.416 3.62089C10.4126 3.62089 10.4092 3.62089 10.4057 3.62089C10.4023 3.62089 10.3989 3.62089 10.3955 3.62089C10.392 3.62089 10.3886 3.62089 10.3852 3.62089C10.3818 3.62089 10.3783 3.62089 10.3749 3.62089C10.3715 3.62089 10.3681 3.62089 10.3646 3.62089C10.3612 3.62089 10.3578 3.62089 10.3544 3.62089C10.351 3.62089 10.3475 3.62089 10.3441 3.62089C10.3407 3.62089 10.3373 3.62089 10.3338 3.62089C10.3304 3.62089 10.327 3.62089 10.3236 3.62089C10.3201 3.62089 10.3167 3.62089 10.3133 3.62089C10.3099 3.62089 10.3065 3.62089 10.303 3.62089C10.2996 3.62089 10.2962 3.62089 10.2928 3.62089C10.2893 3.62089 10.2859 3.62089 10.2825 3.62089C10.2791 3.62089 10.2757 3.62089 10.2722 3.62089C10.2688 3.62089 10.2654 3.62089 10.262 3.62089C10.2585 3.62089 10.2551 3.62089 10.2517 3.62089C10.2483 3.62089 10.2449 3.62089 10.2414 3.62089C10.238 3.62089 10.2346 3.62089 10.2312 3.62089C10.2278 3.62089 10.2243 3.62089 10.2209 3.62089C10.2175 3.62089 10.2141 3.62089 10.2107 3.62089C10.2072 3.62089 10.2038 3.62089 10.2004 3.62089C10.197 3.62089 10.1936 3.62089 10.1901 3.62089C10.1867 3.62089 10.1833 3.62089 10.1799 3.62089C10.1765 3.62089 10.173 3.62089 10.1696 3.62089C10.1662 3.62089 10.1628 3.62089 10.1594 3.62089C10.1559 3.62089 10.1525 3.62089 10.1491 3.62089C10.1457 3.62089 10.1423 3.62089 10.1388 3.62089C10.1354 3.62089 10.132 3.62089 10.1286 3.62089C10.1252 3.62089 10.1217 3.62089 10.1183 3.62089C10.1149 3.62089 10.1115 3.62089 10.1081 3.62089C10.1046 3.62089 10.1012 3.62089 10.0978 3.62089C10.0944 3.62089 10.091 3.62089 10.0876 3.62089C10.0841 3.62089 10.0807 3.62089 10.0773 3.62089C10.0739 3.62089 10.0705 3.62089 10.067 3.62089C10.0636 3.62089 10.0602 3.62089 10.0568 3.62089C10.0534 3.62089 10.05 3.62089 10.0465 3.62089C10.0431 3.62089 10.0397 3.62089 10.0363 3.62089C10.0329 3.62089 10.0294 3.62089 10.026 3.62089C10.0226 3.62089 10.0192 3.62089 10.0158 3.62089C10.0124 3.62089 10.0089 3.62089 10.0055 3.62089C10.0021 3.62089 9.99869 3.62089 9.99527 3.62089C9.99186 3.62089 9.98844 3.62089 9.98502 3.62089C9.98161 3.62089 9.97819 3.62089 9.97477 3.62089C9.97135 3.62089 9.96794 3.62089 9.96452 3.62089C9.9611 3.62089 9.95768 3.62089 9.95427 3.62089C9.95085 3.62089 9.94743 3.62089 9.94402 3.62089C9.9406 3.62089 9.93718 3.62089 9.93377 3.62089C9.93035 3.62089 9.92693 3.62089 9.92352 3.62089C9.9201 3.62089 9.91668 3.62089 9.91327 3.62089C9.90985 3.62089 9.90643 3.62089 9.90302 3.62089C9.8996 3.62089 9.89618 3.62089 9.89277 3.62089C9.88935 3.62089 9.88593 3.62089 9.88252 3.62089C9.8791 3.62089 9.87568 3.62089 9.87227 3.62089C9.86885 3.62089 9.86543 3.62089 9.86202 3.62089C9.8586 3.62089 9.85518 3.62089 9.85177 3.62089C9.84835 3.62089 9.84493 3.62089 9.84152 3.62089C9.8381 3.62089 9.83469 3.62089 9.83127 3.62089C9.82785 3.62089 9.82444 3.62089 9.82102 3.62089C9.8176 3.62089 9.81419 3.62089 9.81077 3.62089C9.80735 3.62089 9.80394 3.62089 9.80052 3.62089C9.7971 3.62089 9.79369 3.62089 9.79027 3.62089C9.78686 3.62089 9.78344 3.62089 9.78002 3.62089C9.77661 3.62089 9.77319 3.62089 9.76977 3.62089C9.76636 3.62089 9.76294 3.62089 9.75952 3.62089C9.75611 3.62089 9.75269 3.62089 9.74927 3.62089C9.74586 3.62089 9.74244 3.62089 9.73902 3.62089C9.73561 3.62089 9.73219 3.62089 9.72878 3.62089C9.72536 3.62089 9.72194 3.62089 9.71853 3.62089C9.71511 3.62089 9.71169 3.62089 9.70828 3.62089C9.70486 3.62089 9.70144 3.62089 9.69803 3.62089C9.69461 3.62089 9.69119 3.62089 9.68778 3.62089C9.68436 3.62089 9.68094 3.62089 9.67753 3.62089C9.67411 3.62089 9.67069 3.62089 9.66727 3.62089C9.66386 3.62089 9.66044 3.62089 9.65702 3.62089C9.65361 3.62089 9.65019 3.62089 9.64677 3.62089C9.64336 3.62089 9.63994 3.62089 9.63652 3.62089C9.63311 3.62089 9.62969 3.62089 9.62627 3.62089C9.62285 3.62089 9.61944 3.62089 9.61602 3.62089C9.6126 3.62089 9.60919 3.62089 9.60577 3.62089C9.60235 3.62089 9.59893 3.62089 9.59552 3.62089C9.5921 3.62089 9.58868 3.62089 9.58526 3.62089C9.58185 3.62089 9.57843 3.62089 9.57501 3.62089C9.57159 3.62089 9.56818 3.62089 9.56476 3.62089C9.56134 3.62089 9.55792 3.62089 9.5545 3.62089C9.55109 3.62089 9.54767 3.62089 9.54425 3.62089C9.54083 3.62089 9.53741 3.62089 9.534 3.62089C9.53058 3.62089 9.52716 3.62089 9.52374 3.62089C9.52032 3.62089 9.5169 3.62089 9.51349 3.62089C9.51007 3.62089 9.50665 3.62089 9.50323 3.62089C9.49981 3.62089 9.49639 3.62089 9.49298 3.62089C9.48956 3.62089 9.48614 3.62089 9.48272 3.62089C9.4793 3.62089 9.47588 3.62089 9.47246 3.62089C9.46904 3.62089 9.46562 3.62089 9.4622 3.62089C9.45879 3.62089 9.45537 3.62089 9.45195 3.62089C9.44853 3.62089 9.44511 3.62089 9.44169 3.62089C9.43827 3.62089 9.43485 3.62089 9.43143 3.62089C9.42801 3.62089 9.42459 3.62089 9.42117 3.62089C9.41775 3.62089 9.41433 3.62089 9.41091 3.62089C9.40749 3.62089 9.40407 3.62089 9.40065 3.62089C9.39723 3.62089 9.39381 3.62089 9.39039 3.62089C9.38697 3.62089 9.38355 3.62089 9.38013 3.62089C9.37671 3.62089 9.37329 3.62089 9.36987 3.62089C9.36645 3.62089 9.36302 3.62089 9.3596 3.62089C9.35618 3.62089 9.35276 3.62089 9.34934 3.62089C9.34592 3.62089 9.3425 3.62089 9.33908 3.62089C9.33565 3.62089 9.33223 3.62089 9.32881 3.62089C9.32539 3.62089 9.32197 3.62089 9.31854 3.62089C9.31512 3.62089 9.3117 3.62089 9.30828 3.62089C9.30486 3.62089 9.30143 3.62089 9.29801 3.62089C9.29459 3.62089 9.29117 3.62089 9.28774 3.62089C9.28432 3.62089 9.2809 3.62089 9.27748 3.62089C9.27405 3.62089 9.27063 3.62089 9.26721 3.62089C9.26378 3.62089 9.26036 3.62089 9.25694 3.62089C9.25351 3.62089 9.25009 3.62089 9.24667 3.62089C9.24324 3.62089 9.23982 3.62089 9.23639 3.62089C9.23297 3.62089 9.22955 3.62089 9.22612 3.62089C9.2227 3.62089 9.21927 3.62089 9.21585 3.62089C9.21242 3.62089 9.209 3.62089 9.20557 3.62089C9.20215 3.62089 9.19872 3.62089 9.1953 3.62089C9.19187 3.62089 9.18845 3.62089 9.18502 3.62089C9.1816 3.62089 9.17817 3.62089 9.17475 3.62089C9.17132 3.62089 9.16789 3.62089 9.16447 3.62089C9.16104 3.62089 9.15762 3.62089 9.15419 3.62089C9.15076 3.62089 9.14734 3.62089 9.14391 3.62089C9.14048 3.62089 9.13706 3.62089 9.13363 3.62089C9.1302 3.62089 9.12677 3.62089 9.12335 3.62089C9.11992 3.62089 9.11649 3.62089 9.11306 3.62089C9.10964 3.62089 9.10621 3.62089 9.10278 3.62089C9.09935 3.62089 9.09592 3.62089 9.0925 3.62089C9.08907 3.62089 9.08564 3.62089 9.08221 3.62089C9.07878 3.62089 9.07535 3.62089 9.07192 3.62089C9.06849 3.62089 9.06507 3.62089 9.06164 3.62089C9.05821 3.62089 9.05478 3.62089 9.05135 3.62089C9.04792 3.62089 9.04449 3.62089 9.04106 3.62089C9.03763 3.62089 9.0342 3.62089 9.03077 3.62089C9.02734 3.62089 9.0239 3.62089 9.02047 3.62089C9.01704 3.62089 9.01361 3.62089 9.01018 3.62089C9.00675 3.62089 9.00332 3.62089 8.99989 3.62089C8.99645 3.62089 8.99302 3.62089 8.98959 3.62089C8.98616 3.62089 8.98273 3.62089 8.97929 3.62089C8.97586 3.62089 8.97243 3.62089 8.96899 3.62089C8.96556 3.62089 8.96213 3.62089 8.9587 3.62089C8.95526 3.62089 8.95183 3.62089 8.94839 3.62089C8.94496 3.62089 8.94153 3.62089 8.93809 3.62089C8.93466 3.62089 8.93122 3.62089 8.92779 3.62089C8.92436 3.62089 8.92092 3.62089 8.91749 3.62089C8.91405 3.62089 8.91061 3.62089 8.90718 3.62089C8.90374 3.62089 8.90031 3.62089 8.89687 3.62089C8.89344 3.62089 8.89 3.62089 8.88656 3.62089C8.88313 3.62089 8.87969 3.62089 8.87625 3.62089C8.87282 3.62089 8.86938 3.62089 8.86594 3.62089C8.86251 3.62089 8.85907 3.62089 8.85563 3.62089C8.85219 3.62089 8.84876 3.62089 8.84532 3.62089C8.84188 3.62089 8.83844 3.62089 8.835 3.62089C8.83156 3.62089 8.82812 3.62089 8.82469 3.62089C8.82125 3.62089 8.81781 3.62089 8.81437 3.62089C8.81093 3.62089 8.80749 3.62089 8.80405 3.62089C8.80061 3.62089 8.79717 3.62089 8.79373 3.62089C8.79029 3.62089 8.78685 3.62089 8.7834 3.62089C8.77996 3.62089 8.77652 3.62089 8.77308 3.62089C8.76964 3.62089 8.7662 3.62089 8.76276 3.62089C8.75931 3.62089 8.75587 3.62089 8.75243 3.62089C8.74899 3.62089 8.74554 3.62089 8.7421 3.62089C8.73866 3.62089 8.73521 3.62089 8.73177 3.62089C8.72833 3.62089 8.72488 3.62089 8.72144 3.62089C8.71799 3.62089 8.71455 3.62089 8.7111 3.62089C8.70766 3.62089 8.70422 3.62089 8.70077 3.62089C8.69732 3.62089 8.69388 3.62089 8.69043 3.62089C8.68699 3.62089 8.68354 3.62089 8.6801 3.62089C8.67665 3.62089 8.6732 3.62089 8.66976 3.62089C8.66631 3.62089 8.66286 3.62089 8.65941 3.62089C8.65597 3.62089 8.65252 3.62089 8.64907 3.62089C8.64562 3.62089 8.64218 3.62089 8.63873 3.62089C8.63528 3.62089 8.63183 3.62089 8.62838 3.62089C8.62493 3.62089 8.62148 3.62089 8.61803 3.62089C8.61458 3.62089 8.61113 3.62089 8.60768 3.62089C8.60423 3.62089 8.60078 3.62089 8.59733 3.62089C8.59388 3.62089 8.59043 3.62089 8.58698 3.62089C8.58353 3.62089 8.58007 3.62089 8.57662 3.62089C8.57317 3.62089 8.56972 3.62089 8.56627 3.62089C8.56281 3.62089 8.55936 3.62089 8.55591 3.62089C8.55245 3.62089 8.549 3.62089 8.54555 3.62089C8.54209 3.62089 8.53864 3.62089 8.53518 3.62089C8.53173 3.62089 8.52827 3.62089 8.52482 3.62089C8.52136 3.62089 8.51791 3.62089 8.51445 3.62089C8.511 3.62089 8.50754 3.62089 8.50408 3.62089C8.50063 3.62089 8.49717 3.62089 8.49371 3.62089C8.49026 3.62089 8.4868 3.62089 8.48334 3.62089C8.47989 3.62089 8.47643 3.62089 8.47297 3.62089C8.46951 3.62089 8.46605 3.62089 8.46259 3.62089C8.45913 3.62089 8.45567 3.62089 8.45222 3.62089C8.44876 3.62089 8.4453 3.62089 8.44184 3.62089C8.43838 3.62089 8.43491 3.62089 8.43145 3.62089C8.42799 3.62089 8.42453 3.62089 8.42107 3.62089C8.41761 3.62089 8.41415 3.62089 8.41068 3.62089C8.40722 3.62089 8.40376 3.62089 8.4003 3.62089C8.39683 3.62089 8.39337 3.62089 8.38991 3.62089C8.38644 3.62089 8.38298 3.62089 8.37952 3.62089C8.37605 3.62089 8.37259 3.62089 8.36912 3.62089C8.36566 3.62089 8.36219 3.62089 8.35873 3.62089C8.35526 3.62089 8.35179 3.62089 8.34833 3.62089C8.34486 3.62089 8.34139 3.62089 8.33793 3.62089C8.33446 3.62089 8.33099 3.62089 8.32752 3.62089C8.32406 3.62089 8.32059 3.62089 8.31712 3.62089C8.31365 3.62089 8.31018 3.62089 8.30671 3.62089C8.30324 3.62089 8.29977 3.62089 8.2963 3.62089C8.29283 3.62089 8.28936 3.62089 8.28589 3.62089C8.28242 3.62089 8.27895 3.62089 8.27548 3.62089C8.27201 3.62089 8.26854 3.62089 8.26506 3.62089C8.26159 3.62089 8.25812 3.62089 8.25465 3.62089C8.25117 3.62089 8.2477 3.62089 8.24423 3.62089C8.24075 3.62089 8.23728 3.62089 8.2338 3.62089C8.23033 3.62089 8.22685 3.62089 8.22338 3.62089C8.2199 3.62089 8.21643 3.62089 8.21295 3.62089C8.20948 3.62089 8.206 3.62089 8.20252 3.62089C8.19905 3.62089 8.19557 3.62089 8.19209 3.62089C8.18861 3.62089 8.18513 3.62089 8.18166 3.62089C8.17818 3.62089 8.1747 3.62089 8.17122 3.62089C8.16774 3.62089 8.16426 3.62089 8.16078 3.62089C8.1573 3.62089 8.15382 3.62089 8.15034 3.62089C8.14686 3.62089 8.14338 3.62089 8.1399 3.62089C8.13642 3.62089 8.13293 3.62089 8.12945 3.62089C8.12597 3.62089 8.12249 3.62089 8.119 3.62089C8.11552 3.62089 8.11204 3.62089 8.10855 3.62089C8.10507 3.62089 8.10158 3.62089 8.0981 3.62089C8.09461 3.62089 8.09113 3.62089 8.08764 3.62089C8.08416 3.62089 8.08067 3.62089 8.07718 3.62089C8.0737 3.62089 8.07021 3.62089 8.06672 3.62089C8.06324 3.62089 8.05975 3.62089 8.05626 3.62089C8.05277 3.62089 8.04928 3.62089 8.04579 3.62089C8.0423 3.62089 8.03881 3.62089 8.03532 3.62089C8.03183 3.62089 8.02834 3.62089 8.02485 3.62089C8.02136 3.62089 8.01787 3.62089 8.01438 3.62089C8.01089 3.62089 8.0074 3.62089 8.0039 3.62089C8.00041 3.62089 7.99692 3.62089 7.99342 3.62089C7.98993 3.62089 7.98644 3.62089 7.98294 3.62089C7.97945 3.62089 7.97595 3.62089 7.97246 3.62089C7.96896 3.62089 7.96547 3.62089 7.96197 3.62089C7.95848 3.62089 7.95498 3.62089 7.95148 3.62089C7.94799 3.62089 7.94449 3.62089 7.94099 3.62089C7.93749 3.62089 7.93399 3.62089 7.93049 3.62089C7.927 3.62089 7.9235 3.62089 7.92 3.62089C7.9165 3.62089 7.913 3.62089 7.9095 3.62089C7.906 3.62089 7.90249 3.62089 7.89899 3.62089C7.89549 3.62089 7.89199 3.62089 7.88849 3.62089C7.88498 3.62089 7.88148 3.62089 7.87798 3.62089C7.87447 3.62089 7.87097 3.62089 7.86747 3.62089C7.86396 3.62089 7.86046 3.62089 7.85695 3.62089C7.85345 3.62089 7.84994 3.62089 7.84643 3.62089C7.84293 3.62089 7.83942 3.62089 7.83591 3.62089C7.83241 3.62089 7.8289 3.62089 7.82539 3.62089C7.82188 3.62089 7.81837 3.62089 7.81487 3.62089C7.81136 3.62089 7.80785 3.62089 7.80434 3.62089C7.80083 3.62089 7.79732 3.62089 7.79381 3.62089C7.79029 3.62089 7.78678 3.62089 7.78327 3.62089C7.77976 3.62089 7.77625 3.62089 7.77273 3.62089C7.76922 3.62089 7.76571 3.62089 7.76219 3.62089C7.75868 3.62089 7.75516 3.62089 7.75165 3.62089C7.74813 3.62089 7.74462 3.62089 7.7411 3.62089C7.73759 3.62089 7.73407 3.62089 7.73055 3.62089C7.72704 3.62089 7.72352 3.62089 7.72 3.62089C7.71648 3.62089 7.71296 3.62089 7.70944 3.62089C7.70593 3.62089 7.70241 3.62089 7.69889 3.62089C7.69537 3.62089 7.69185 3.62089 7.68832 3.62089C7.6848 3.62089 7.68128 3.62089 7.67776 3.62089C7.67424 3.62089 7.67072 3.62089 7.66719 3.62089C7.66367 3.62089 7.66015 3.62089 7.65662 3.62089C7.6531 3.62089 7.64957 3.62089 7.64605 3.62089C7.64252 3.62089 7.639 3.62089 7.63547 3.62089C7.63194 3.62089 7.62842 3.62089 7.62489 3.62089C7.62136 3.62089 7.61783 3.62089 7.61431 3.62089C7.61078 3.62089 7.60725 3.62089 7.60372 3.62089C7.60019 3.62089 7.59666 3.62089 7.59313 3.62089C7.5896 3.62089 7.58607 3.62089 7.58254 3.62089C7.579 3.62089 7.57547 3.62089 7.57194 3.62089C7.56841 3.62089 7.56487 3.62089 7.56134 3.62089C7.55781 3.62089 7.55427 3.62089 7.55074 3.62089C7.5472 3.62089 7.54367 3.62089 7.54013 3.62089C7.5366 3.62089 7.53306 3.62089 7.52952 3.62089C7.52598 3.62089 7.52245 3.62089 7.51891 3.62089C7.51537 3.62089 7.51183 3.62089 7.50829 3.62089C7.50475 3.62089 7.50121 3.62089 7.49767 3.62089C7.49413 3.62089 7.49059 3.62089 7.48705 3.62089C7.48351 3.62089 7.47997 3.62089 7.47642 3.62089C7.47288 3.62089 7.46934 3.62089 7.4658 3.62089C7.46225 3.62089 7.45871 3.62089 7.45516 3.62089C7.45162 3.62089 7.44807 3.62089 7.44453 3.62089C7.44098 3.62089 7.43743 3.62089 7.43389 3.62089C7.43034 3.62089 7.42679 3.62089 7.42324 3.62089C7.4197 3.62089 7.41615 3.62089 7.4126 3.62089C7.40905 3.62089 7.4055 3.62089 7.40195 3.62089C7.3984 3.62089 7.39485 3.62089 7.39129 3.62089C7.38774 3.62089 7.38419 3.62089 7.38064 3.62089C7.37708 3.62089 7.37353 3.62089 7.36998 3.62089C7.36642 3.62089 7.36287 3.62089 7.35931 3.62089C7.35576 3.62089 7.3522 3.62089 7.34864 3.62089C7.34509 3.62089 7.34153 3.62089 7.33797 3.62089C7.33441 3.62089 7.33086 3.62089 7.3273 3.62089C7.32374 3.62089 7.32018 3.62089 7.31662 3.62089C7.31306 3.62089 7.3095 3.62089 7.30594 3.62089C7.30238 3.62089 7.29881 3.62089 7.29525 3.62089C7.29169 3.62089 7.28813 3.62089 7.28456 3.62089C7.281 3.62089 7.27743 3.62089 7.27387 3.62089C7.27031 3.62089 7.26674 3.62089 7.26317 3.62089C7.25961 3.62089 7.25604 3.62089 7.25247 3.62089C7.24891 3.62089 7.24534 3.62089 7.24177 3.62089C7.2382 3.62089 7.23463 3.62089 7.23106 3.62089C7.22749 3.62089 7.22392 3.62089 7.22035 3.62089C7.21678 3.62089 7.21321 3.62089 7.20964 3.62089C7.20606 3.62089 7.20249 3.62089 7.19892 3.62089C7.19534 3.62089 7.19177 3.62089 7.18819 3.62089C7.18462 3.62089 7.18104 3.62089 7.17747 3.62089C7.17389 3.62089 7.17031 3.62089 7.16674 3.62089C7.16316 3.62089 7.15958 3.62089 7.156 3.62089C7.15242 3.62089 7.14885 3.62089 7.14527 3.62089C7.14169 3.62089 7.1381 3.62089 7.13452 3.62089V4.68489ZM16.7339 7.08756H2.86719V8.15156H16.7339V7.08756ZM13.2304 2.66718V5.6386H14.2944V2.66718H13.2304ZM5.30662 2.66718V5.6386H6.37062V2.66718H5.30662ZM7.13385 16.0018C6.11315 16.0018 5.40114 16.0007 4.8639 15.9284C4.34195 15.8583 4.06531 15.7299 3.86821 15.5328L3.11585 16.2851C3.54359 16.7129 4.08219 16.8969 4.72212 16.9829C5.34675 17.0669 6.14323 17.0658 7.13385 17.0658V16.0018ZM2.33519 12.2671C2.33519 13.2578 2.33406 14.0542 2.41804 14.6789C2.50407 15.3188 2.68811 15.8574 3.11585 16.2851L3.86821 15.5328C3.67111 15.3357 3.54272 15.059 3.47255 14.5371C3.40032 13.9998 3.39919 13.2878 3.39919 12.2671H2.33519ZM16.2019 12.2671C16.2019 13.2878 16.2007 13.9998 16.1285 14.5371C16.0583 15.059 15.9299 15.3357 15.7328 15.5328L16.4852 16.2851C16.9129 15.8574 17.097 15.3188 17.183 14.6789C17.267 14.0542 17.2659 13.2577 17.2659 12.2671H16.2019ZM12.4672 17.0658C13.4578 17.0658 14.2543 17.0669 14.8789 16.9829C15.5189 16.8969 16.0575 16.7129 16.4852 16.2851L15.7328 15.5328C15.5357 15.7299 15.2591 15.8583 14.7371 15.9284C14.1999 16.0007 13.4879 16.0018 12.4672 16.0018V17.0658ZM17.2659 8.41956C17.2659 7.42893 17.267 6.63245 17.183 6.00782C17.097 5.36789 16.9129 4.82929 16.4852 4.40155L15.7328 5.15391C15.9299 5.35101 16.0583 5.62765 16.1285 6.1496C16.2007 6.68685 16.2019 7.39885 16.2019 8.41956H17.2659ZM12.4665 4.68489C13.4874 4.68489 14.1996 4.68602 14.737 4.75825C15.2591 4.82843 15.5358 4.95683 15.7328 5.15391L16.4852 4.40155C16.0574 3.97379 15.5188 3.78977 14.8787 3.70374C14.254 3.61976 13.4574 3.62089 12.4665 3.62089V4.68489ZM3.39919 8.41956C3.39919 7.39886 3.40032 6.68685 3.47255 6.1496C3.54272 5.62765 3.67111 5.35101 3.86821 5.15391L3.11585 4.40155C2.6881 4.82929 2.50407 5.36789 2.41804 6.00782C2.33406 6.63245 2.33519 7.42894 2.33519 8.41956H3.39919ZM7.13452 3.62089C6.14367 3.62089 5.34703 3.61976 4.7223 3.70374C4.08228 3.78977 3.5436 3.97379 3.11585 4.40155L3.86821 5.15391C4.06529 4.95683 4.34197 4.82843 4.86405 4.75825C5.40142 4.68602 6.1136 4.68489 7.13452 4.68489V3.62089Z" fill="#3F0E14"/>
</g>
<defs>
<clipPath id="clip0_2622_14685">
<rect width="19.2" height="19.2" fill="white" transform="translate(0.199219)"/>
</clipPath>
</defs>
</svg>
